# xmcd
#
# Track frame offsets:
#	150
#	10542
#	20570
#	30456
#	39706
#	49651
#	58465
#	69975
#	79509
#	91388
#	99736
#	106435
#	115853
#	124958
#	132401
#	139893
#	150231
#	156453
#	166843
#	174711
#	182992
#	194477
#	206381
#	219548
#	227991
#	239842
#	251294
#	258302
#	268608
#	280999
#	293656
#	304002
#	315174
#	323217
#	332927
#	342465
#
# Disc length: 4688 seconds
#
# Revision: 1
# Processed by: cddbd v1.5.2PL0 Copyright (c) Steve Scherf et al.
# Submitted via: audiograbber 1.83.01
#
DISCID=15124e24
DTITLE=Various Artist - Hot Rockin' Music From Tennessee Volume 2
DYEAR=1900
DGENRE=
TTITLE0=NA Stephenson and Four Kings - Boogie Woogie Country Girl
TTITLE1=Larry Brinkley - Jackson Dog
TTITLE2=Billy Wayne - Walking And Strolling
TTITLE3=Bobby Hardin and Night Riders - I'm Loving You Baby
TTITLE4=Joe Rickman - Lonely Heart
TTITLE5=Larry Brinkley - Move Over Rover
TTITLE6=Bobby Hardin and Night Riders - That'll Get It
TTITLE7=Tony Snider and Thunderbolts - They Call It Puppy Love
TTITLE8=NA Stephenson and Four Kings - Pins And Needles
TTITLE9=Billy wayne - I Love My Baby
TTITLE10=Bobby Hardin - Dreamer Boy
TTITLE11=Larry Brinkley - All Night Long
TTITLE12=Tony Snider and Thunderbolts - Your Cheating Heart
TTITLE13=Charlie Roach - Blues In F
TTITLE14=Joe Rickman - My Old Lonesome Love
TTITLE15=Larry Brinkley - Tornado Twist
TTITLE16=Bobby Hardin and Night Riders - Getting Better
TTITLE17=Tony Snider and Thunderbolts - Fool For Jealousy
TTITLE18=Charlie Roach and Joe Kenchen - Little Star
TTITLE19=Billy Wayne - Lonely Wind
TTITLE20=Bobby Hardin and Night Beats - Sweet Sweet Dreams
TTITLE21=Larry Brinkley - Sundown Blues
TTITLE22=Tony Snider and Thunderbolts - It's You
TTITLE23=Charlie Roach - Three Way Boogie
TTITLE24=Bobby Hardin and Night Riders - That'll Get It (Alt Take 2)
TTITLE25=Larry Brinkley - I Got Memories In My Eyes
TTITLE26=Bobby Hardin and Night Beats - Dreamer Boy (Alt Take 1)
TTITLE27=Tony Snider - It's You (Original Demo)
TTITLE28=Lynn Pratt and Rhythm Cats - Tom Cat Boogie
TTITLE29=Curly Griffin - I've Seen It All
TTITLE30=Lynn Pratt and Rhythm Cats - They're Learning
TTITLE31=Curly Griffin - Got Rockin' On My Mind
TTITLE32=Lynn Pratt and Rhythm Cats - Come Here Mama
TTITLE33=Curly Griffin - Gotta Whip This Bear
TTITLE34=Curly Griffin - You Gotta Play Fair
TTITLE35=Larry Brinkley - She'll Never Be My Baby Anymore
EXTD=
EXTT0=
EXTT1=
EXTT2=
EXTT3=
EXTT4=
EXTT5=
EXTT6=
EXTT7=
EXTT8=
EXTT9=
EXTT10=
EXTT11=
EXTT12=
EXTT13=
EXTT14=
EXTT15=
EXTT16=
EXTT17=
EXTT18=
EXTT19=
EXTT20=
EXTT21=
EXTT22=
EXTT23=
EXTT24=
EXTT25=
EXTT26=
EXTT27=
EXTT28=
EXTT29=
EXTT30=
EXTT31=
EXTT32=
EXTT33=
EXTT34=
EXTT35=
PLAYORDER=
